# xmcd
#
# Track frame offsets: 
#        150
#        3000
#        20572
#        44262
#        59478
#        76550
#        102442
#        121125
#        134535
#        149048
#        158337
#        163925
#        179553
#        193732
#        224028
#        238195
#        262129
#        287658
#
# Disc length: 4108 seconds
#
# Revision: 1
# Processed by: cddbd v1.5.2PL0 Copyright (c) Steve Scherf et al.
# Submitted via: ExactAudioCopyFreeDBPlugin 1.0
#
DISCID=0c100a12
DTITLE=Norrlatar - Ramlosa Kvallar - Proggladan-Box C [CD 5: Tonkraft 
DTITLE=1980, Gardet 1977)
DYEAR=2013
DGENRE=Swedish
TTITLE0=Norrlåtar - introsnack
TTITLE1=Norrlåtar - Schottis från Bodentrakterna
TTITLE2=Norrlåtar - Herrturken
TTITLE3=Norrlåtar - Vandringsmannen
TTITLE4=Norrlåtar - Härs Och Tvärs
TTITLE5=Norrlåtar - Engelsmännens Banbygge
TTITLE6=Norrlåtar - Järvenpää Rannala-Vackra Norskan
TTITLE7=Norrlåtar - Schottis från Glommerträsk
TTITLE8=Norrlåtar - Mazurka från Norrfjärden
TTITLE9=Norrlåtar - Polka efter Johan Axel Falk
TTITLE10=Norrlåtar - mellansnack
TTITLE11=Norrlåtar - Oppningsdans från Tornedalen
TTITLE12=Norrlåtar - Schottis efter Viffas Björklund
TTITLE13=Ramlösa Kvällar - Sega Marie
TTITLE14=Ramlösa Kvällar - Pieta, Pieta
TTITLE15=Ramlösa Kvällar - Grekisk Sorgmarsch
TTITLE16=Ramlösa Kvällar - Yuppia
TTITLE17=Norlatar - Ramlosa Kvallar - Castenada
EXTD=
EXTT0=
EXTT1=
EXTT2=
EXTT3=
EXTT4=
EXTT5=
EXTT6=
EXTT7=
EXTT8=
EXTT9=
EXTT10=
EXTT11=
EXTT12=
EXTT13=
EXTT14=
EXTT15=
EXTT16=
EXTT17=
PLAYORDER=
